<svg xmlns="http://www.w3.org/2000/svg" width="48" height="48" viewBox="0 0 48 48">
    <g fill="none" fill-rule="evenodd">
        <g>
            <g>
                <g>
                    <path d="M0 0H48V48H0z" transform="translate(-116 -322) translate(104 310) translate(12 12)"/>
                    <g fill-rule="nonzero">
                        <path fill="#E45A6E" d="M16.462 10.356c-.217-.363-.62-.57-1.041-.538l-9.047.698c-.916.071-1.732.551-2.239 1.318L.34 17.576c-.385.581-.446 1.309-.164 1.946.282.637.861 1.08 1.55 1.187l7.335 1.137c.057.008.114.013.171.013.376 0 .731-.19.938-.514l6.276-9.818c.227-.356.233-.81.017-1.171z" transform="translate(-116 -322) translate(104 310) translate(12 12) translate(5 5)"/>
                        <path fill="#D82E44" d="M27.645 21.539c-.363-.217-.816-.21-1.172.017l-9.818 6.275c-.371.238-.568.673-.5 1.109l1.136 7.336c.106.688.55 1.267 1.188 1.55.265.116.545.174.824.174.392 0 .782-.114 1.121-.338l5.743-3.797c.766-.507 1.246-1.323 1.317-2.239l.699-9.046c.032-.421-.176-.824-.538-1.041z" transform="translate(-116 -322) translate(104 310) translate(12 12) translate(5 5)"/>
                        <path fill="#F1F1FB" d="M14.315 30.599c.443.443 1.072.65 1.69.547 9.063-1.516 16.235-9.02 18.965-14.298 3.032-5.861 3.144-12.055 2.986-14.96-.054-.996-.848-1.79-1.843-1.844-2.905-.158-9.1-.046-14.96 2.986-5.28 2.73-12.783 9.902-14.298 18.965-.104.618.103 1.248.547 1.69l6.913 6.914z" transform="translate(-116 -322) translate(104 310) translate(12 12) translate(5 5)"/>
                        <path fill="#D7D6FB" d="M37.387.613l-26.529 26.53 3.457 3.456c.443.443 1.072.65 1.69.547 9.063-1.516 16.235-9.02 18.965-14.298 3.032-5.861 3.144-12.055 2.986-14.96-.027-.498-.24-.945-.569-1.275z" transform="translate(-116 -322) translate(104 310) translate(12 12) translate(5 5)"/>
                        <path fill="#466288" d="M26.03 17.533c-1.425 0-2.85-.542-3.935-1.627-1.052-1.052-1.63-2.45-1.63-3.937 0-1.486.578-2.884 1.63-3.936 2.17-2.17 5.701-2.17 7.872 0 1.051 1.052 1.63 2.45 1.63 3.936 0 1.487-.579 2.885-1.63 3.937-1.085 1.085-2.511 1.627-3.936 1.627zM6.855 21.995c-.104.618.103 1.248.547 1.69l6.913 6.914c.443.443 1.072.65 1.69.547 1.972-.33 3.855-.943 5.621-1.756L8.61 16.374c-.812 1.767-1.426 3.649-1.755 5.621z" transform="translate(-116 -322) translate(104 310) translate(12 12) translate(5 5)"/>
                        <path fill="#FDB43A" d="M1.136 31.316c.285 0 .57-.109.787-.326l3.635-3.635c.434-.435.434-1.14 0-1.575-.435-.434-1.14-.434-1.575 0L.35 29.415c-.435.435-.435 1.14 0 1.575.217.217.502.326.787.326zM8.889 29.112c-.435-.435-1.14-.435-1.575 0L.326 36.1c-.434.434-.434 1.14 0 1.574.218.217.503.326.788.326.285 0 .57-.109.787-.326l6.988-6.988c.435-.435.435-1.14 0-1.574z" transform="translate(-116 -322) translate(104 310) translate(12 12) translate(5 5)"/>
                        <path fill="#F57A21" d="M12.22 32.443c-.435-.435-1.14-.435-1.575 0l-3.634 3.634c-.435.435-.435 1.14 0 1.575.217.217.502.326.787.326.285 0 .57-.109.787-.326l3.635-3.635c.435-.435.435-1.14 0-1.574zM.326 37.674c.218.217.503.326.788.326.285 0 .57-.109.787-.326l6.988-6.988c.435-.435.435-1.14 0-1.575L.326 37.674z" transform="translate(-116 -322) translate(104 310) translate(12 12) translate(5 5)"/>
                        <path fill="#354A67" d="M10.858 27.142l3.457 3.457c.443.443 1.072.65 1.69.547 1.972-.33 3.855-.943 5.621-1.756l-6.508-6.508-4.26 4.26zM22.095 15.906c1.085 1.085 2.51 1.627 3.936 1.627 1.425 0 2.85-.542 3.936-1.627 1.051-1.052 1.63-2.45 1.63-3.937 0-1.486-.579-2.884-1.63-3.936l-7.872 7.873z" transform="translate(-116 -322) translate(104 310) translate(12 12) translate(5 5)"/>
                        <path fill="#4BBEFD" d="M26.03 8.631c-.854 0-1.71.326-2.36.977-.632.63-.98 1.47-.98 2.361 0 .893.348 1.731.98 2.362 1.301 1.302 3.42 1.302 4.722 0 .631-.63.979-1.47.979-2.362 0-.892-.348-1.73-.979-2.361-.65-.651-1.506-.977-2.361-.977z" transform="translate(-116 -322) translate(104 310) translate(12 12) translate(5 5)"/>
                        <path fill="#0590FB" d="M28.392 9.608L23.67 14.33c1.302 1.302 3.421 1.302 4.723 0 .631-.63.979-1.47.979-2.362 0-.892-.348-1.73-.979-2.361z" transform="translate(-116 -322) translate(104 310) translate(12 12) translate(5 5)"/>
                    </g>
                </g>
            </g>
        </g>
    </g>
</svg>
