<svg xmlns="http://www.w3.org/2000/svg" width="48" height="48" viewBox="0 0 48 48">
    <g fill="none" fill-rule="evenodd">
        <g>
            <g>
                <g>
                    <path d="M0 0H48V48H0z" transform="translate(-292 -322) translate(280 310) translate(12 12)"/>
                    <g fill-rule="nonzero">
                        <path fill="#FF98CD" d="M20.113 16.7v12.245H4.453v-3.34C2.004 25.605 0 23.601 0 21.152 0 18.703 2.004 16.7 4.453 16.7c0-1.848 1.566-3.34 3.414-3.34h8.906c1.849 0 3.34 1.492 3.34 3.34z" transform="translate(-292 -322) translate(280 310) translate(12 12) translate(5 6)"/>
                        <path fill="#FF80AA" d="M20.113 16.7v12.245h-8.906V13.36h5.566c1.849 0 3.34 1.492 3.34 3.34z" transform="translate(-292 -322) translate(280 310) translate(12 12) translate(5 6)"/>
                        <path fill="#FDC" d="M11.207 4.453c-2.45 0-4.453 2.004-4.453 4.453 0 2.45 2.004 4.453 4.453 4.453 2.45 0 4.453-2.004 4.453-4.453 0-2.449-2.004-4.453-4.453-4.453zM27.906 0c-3.072 0-5.566 2.494-5.566 5.566 0 3.073 2.494 5.567 5.566 5.567 3.073 0 5.567-2.494 5.567-5.567C33.473 2.494 30.979 0 27.906 0z" transform="translate(-292 -322) translate(280 310) translate(12 12) translate(5 6)"/>
                        <path fill="#FFDF40" d="M36.515 19.066l1.485.526V16.7c0-3.069-2.571-5.566-5.64-5.566h-8.907c-3.069 0-5.566 2.497-5.566 5.566-2.456 0-4.453 1.997-4.453 4.453 0 2.456 1.997 4.453 4.453 4.453v5.567h5.566c0 2.456 1.997 4.453 4.453 4.453 2.456 0 4.453-1.997 4.453-4.453H38v-8.46l-1.485.527c-1.673.594-3.042-.628-3.042-2.087s1.369-2.683 3.042-2.086z" transform="translate(-292 -322) translate(280 310) translate(12 12) translate(5 6)"/>
                        <path fill="#FFBE40" d="M32.36 31.172H38v-8.46l-1.485.527c-1.673.594-3.042-.628-3.042-2.087s1.369-2.683 3.042-2.086l1.485.526V16.7c0-3.069-2.571-5.566-5.64-5.566h-4.454v24.492c2.456 0 4.453-1.997 4.453-4.453z" transform="translate(-292 -322) translate(280 310) translate(12 12) translate(5 6)"/>
                        <g fill="#FFCABF">
                            <path d="M22.266 5.566c0 3.073-2.494 5.567-5.567 5.567V0c3.073 0 5.567 2.494 5.567 5.566zM4.453 8.906c0 2.45-2.004 4.453-4.453 4.453V4.453c2.45 0 4.453 2.004 4.453 4.453z" transform="translate(-292 -322) translate(280 310) translate(12 12) translate(5 6) translate(11.207)"/>
                        </g>
                    </g>
                </g>
            </g>
        </g>
    </g>
</svg>
