<svg xmlns="http://www.w3.org/2000/svg" width="48" height="48" viewBox="0 0 48 48">
    <g fill="none" fill-rule="evenodd">
        <g>
            <g>
                <g>
                    <path d="M0 0H48V48H0z" transform="translate(-28 -322) translate(16 310) translate(12 12)"/>
                    <g fill-rule="nonzero">
                        <path fill="#FF9100" d="M39.826 12.53c-.237-.427-.711-.64-1.186-.593l-5.217.759-.522-2.585c-.095-.403-.38-.736-.782-.878-.38-.142-.83-.047-1.139.214l-5.122 4.22 1.233-7.47c.071-.403-.071-.83-.403-1.09-.308-.261-.735-.356-1.138-.214l-2.49.83L21.09.688C20.901.238 20.451 0 20 0c-.45 0-.901.237-1.091.688l-1.968 5.035-2.49-.83c-.404-.142-.83-.047-1.139.214-.332.26-.474.687-.403 1.09l1.233 7.471L9.02 9.447c-.309-.261-.76-.356-1.138-.214-.404.142-.688.474-.783.878l-.522 2.585-5.217-.76c-.475-.047-.949.167-1.186.594-.237.427-.214.948.095 1.328l3.249 4.126-1.969 1.755c-.308.285-.45.688-.379 1.115.071.403.356.735.759.877l7.375 2.775-2.371 2.371c-.285.285-.403.712-.332 1.091.095.404.38.736.759.878l12.213 4.577c.142.047.285.071.427.071.142 0 .285-.024.427-.071l12.213-4.577c.38-.142.664-.474.76-.878.07-.38-.048-.806-.333-1.09l-2.371-2.372 7.375-2.775c.403-.142.688-.474.76-.877.07-.427-.072-.83-.38-1.115l-1.969-1.755 3.25-4.126c.308-.38.331-.901.094-1.328z" transform="translate(-28 -322) translate(16 310) translate(12 12) translate(4 4)"/>
                        <path fill="#FF641A" d="M39.731 13.858l-3.249 4.126 1.969 1.755c.308.285.45.688.379 1.115-.071.403-.356.735-.759.877l-7.375 2.775 2.371 2.371c.285.285.403.712.332 1.091-.095.404-.38.736-.759.878l-12.213 4.577c-.142.047-.285.071-.427.071V0c.45 0 .901.237 1.091.688l1.968 5.035 2.49-.83c.404-.142.83-.047 1.139.214.332.26.474.687.403 1.09l-1.233 7.471 5.122-4.221c.309-.261.76-.356 1.138-.214.404.142.688.474.783.878l.522 2.585 5.217-.76c.475-.047.949.167 1.186.594.237.427.214.948-.095 1.328z" transform="translate(-28 -322) translate(16 310) translate(12 12) translate(4 4)"/>
                        <path fill="#FF641A" d="M27.779 21.233l-6.593 4.387V39.29c0 .663-.522 1.185-1.186 1.185-.664 0-1.186-.522-1.186-1.185V25.62l-6.593-4.387c-.545-.38-.687-1.114-.332-1.66.38-.545 1.115-.688 1.66-.332l5.265 3.534v-4.91c0-.663.522-1.185 1.186-1.185.664 0 1.186.522 1.186 1.186v4.909l5.265-3.534c.545-.356 1.28-.213 1.66.332.355.546.213 1.28-.332 1.66z" transform="translate(-28 -322) translate(16 310) translate(12 12) translate(4 4)"/>
                        <path fill="#F03800" d="M27.779 21.233l-6.593 4.387V39.29c0 .663-.522 1.185-1.186 1.185V16.68c.664 0 1.186.522 1.186 1.186v4.909l5.265-3.534c.545-.356 1.28-.213 1.66.332.355.546.213 1.28-.332 1.66z" transform="translate(-28 -322) translate(16 310) translate(12 12) translate(4 4)"/>
                    </g>
                </g>
            </g>
        </g>
    </g>
</svg>
