<svg xmlns="http://www.w3.org/2000/svg" width="48" height="48" viewBox="0 0 48 48">
    <g fill="none" fill-rule="evenodd">
        <g>
            <g>
                <g>
                    <path d="M0 0H48V48H0z" transform="translate(-380 -322) translate(368 310) translate(12 12)"/>
                    <g fill-rule="nonzero" transform="translate(-380 -322) translate(368 310) translate(12 12) translate(5 6)">
                        <path fill="#22BFA2" d="M15.28 28.057l-.162.162c-1.002.12-1.995.288-2.977.5l-.662-.664c-.434-.436-.433-1.141.003-1.575.435-.434 1.14-.433 1.574.003l.323.325.33-.328c.435-.434 1.14-.433 1.573.003.434.435.433 1.14-.002 1.574z"/>
                        <path fill="#28A085" d="M26.466 28.057l-.655.652c-.986-.212-1.983-.378-2.99-.497l-.156-.157c-.434-.436-.434-1.141.002-1.575.436-.434 1.14-.433 1.574.003l.325.325.328-.328c.435-.434 1.14-.433 1.574.003.434.435.433 1.14-.002 1.574z"/>
                        <circle cx="8.8" cy="14.614" r="7.793" fill="#22BFA2"/>
                        <circle cx="29.019" cy="14.614" r="7.793" fill="#28A085"/>
                        <path fill="#823931" d="M11.814 16.143l-1.9 1.901v11.242c-.75.22-1.493.468-2.226.743V18.044l-1.901-1.9c-.435-.435-.435-1.14 0-1.575.435-.435 1.14-.435 1.574 0l1.44 1.44 1.439-1.44c.435-.435 1.14-.435 1.574 0 .435.435.435 1.14 0 1.574z"/>
                        <path fill="#583227" d="M32.033 16.143l-1.9 1.901v11.919c-.734-.27-1.476-.514-2.227-.729v-11.19l-1.9-1.9c-.435-.435-.435-1.14 0-1.575.434-.435 1.14-.435 1.574 0l1.44 1.44 1.439-1.44c.434-.435 1.14-.435 1.574 0 .435.435.435 1.14 0 1.574z"/>
                        <circle cx="19" cy="10.124" r="10.057" fill="#28A085"/>
                        <path fill="#1B8772" d="M29.057 10.124c0 5.169-3.92 9.44-8.944 9.995-.592.066-.997.058-1.129.062V.068H19c5.545 0 10.057 4.51 10.057 10.056z"/>
                        <path fill="#AC5743" d="M23.1 10.96l-2.987 2.986v14.06c-.725-.024-1.443-.026-2.227 0V13.978l-3.026-3.026c-.435-.434-.435-1.14 0-1.574.435-.435 1.14-.435 1.575 0l2.549 2.549 2.541-2.542c.435-.434 1.14-.434 1.574 0 .435.435.435 1.14 0 1.575z"/>
                        <path fill="#823931" d="M23.1 10.96l-2.987 2.986v14.06c-.375-.012-.747-.019-1.129-.019v-16.06l2.542-2.542c.435-.434 1.14-.434 1.574 0 .435.435.435 1.14 0 1.575z"/>
                        <path fill="#28A085" d="M37.518 33.38c-11.137-7.676-25.861-7.702-37.037 0-.895.617-.459 2.03.632 2.03h35.774c1.088 0 1.53-1.412.631-2.03z"/>
                        <path fill="#1B8772" d="M36.887 35.409H18.984v-7.793c7.054.055 13.245 2.117 18.534 5.763.897.619.458 2.03-.631 2.03z"/>
                    </g>
                </g>
            </g>
        </g>
    </g>
</svg>
