<svg xmlns="http://www.w3.org/2000/svg" width="48" height="48" viewBox="0 0 48 48">
    <g fill="none" fill-rule="evenodd">
        <g>
            <g>
                <g>
                    <path d="M0 0H48V48H0z" transform="translate(-204 -322) translate(192 310) translate(12 12)"/>
                    <g fill-rule="nonzero">
                        <path fill="#E0230D" d="M14.713 6.09c.61 6.386-5.346 7.01-4.737 13.395.141 1.472.569 2.57 1.146 3.47-1.11-1.17-2.907-2.44-3.13-4.772-.61-6.385 5.346-7.01 4.736-13.395-.222-2.332-.491-3.602-1.602-4.771 1.643 1.44 3.282 2.88 3.587 6.073z" transform="translate(-204 -322) translate(192 310) translate(12 12) translate(5 6)"/>
                        <path fill="#FF5440" d="M13.493 4.788c.61 6.385-5.346 7.01-4.736 13.395.223 2.332 1.255 3.601 2.365 4.771-1.64-1.44-3.28-2.882-3.585-6.074-.61-6.385 5.346-7.01 4.736-13.394-.14-1.473-.568-2.571-1.146-3.47 1.11 1.17 2.143 2.44 2.366 4.772z" transform="translate(-204 -322) translate(192 310) translate(12 12) translate(5 6)"/>
                        <path fill="#E0230D" d="M22.588 6.09c.61 6.386-5.346 7.01-4.736 13.395.14 1.472.568 2.57 1.145 3.47-1.11-1.17-2.907-2.44-3.13-4.772-.61-6.385 5.347-7.01 4.736-13.395-.222-2.332-.491-3.602-1.601-4.771 1.642 1.44 3.281 2.88 3.586 6.073z" transform="translate(-204 -322) translate(192 310) translate(12 12) translate(5 6)"/>
                        <path fill="#FF5440" d="M21.368 4.788c.61 6.385-5.346 7.01-4.736 13.395.223 2.332 1.256 3.601 2.365 4.771-1.64-1.44-3.28-2.882-3.585-6.074-.61-6.385 5.346-7.01 4.737-13.394-.141-1.473-.568-2.571-1.147-3.47 1.11 1.17 2.144 2.44 2.366 4.772z" transform="translate(-204 -322) translate(192 310) translate(12 12) translate(5 6)"/>
                        <path fill="#E0230D" d="M30.463 6.09c.61 6.386-5.346 7.011-4.736 13.396.14 1.471.568 2.57 1.145 3.468-1.11-1.17-2.907-2.439-3.13-4.77-.61-6.386 5.347-7.011 4.737-13.396-.223-2.332-.492-3.602-1.602-4.771 1.642 1.44 3.281 2.88 3.586 6.074z" transform="translate(-204 -322) translate(192 310) translate(12 12) translate(5 6)"/>
                        <path fill="#FF5440" d="M29.243 4.788c.61 6.385-5.346 7.01-4.736 13.396.223 2.332 1.256 3.6 2.365 4.77-1.64-1.44-3.28-2.881-3.585-6.073-.61-6.385 5.346-7.01 4.737-13.395-.141-1.473-.568-2.57-1.147-3.47 1.11 1.17 2.144 2.44 2.366 4.772z" transform="translate(-204 -322) translate(192 310) translate(12 12) translate(5 6)"/>
                        <path fill="#E0230D" d="M33.207 20.66C36.187 22.247 38 24.336 38 26.625c0 4.924-8.374 8.984-18.755 8.984 4.495 0 15.697-4.066 15.697-8.984 0-1.165.351-2.278-.4-3.3-.09-.945-.56-1.844-1.335-2.663z" transform="translate(-204 -322) translate(192 310) translate(12 12) translate(5 6)"/>
                        <path fill="#FF5440" d="M34.543 23.325c.75 1.021 1.163 2.134 1.163 3.3 0 4.917-7.347 8.912-16.46 8.983H19c-10.493 0-19-4.021-19-8.983 0-2.29 1.812-4.378 4.793-5.964-.868.917-1.352 1.933-1.352 3.003 0 4.063 6.966 7.357 15.559 7.357s15.56-3.294 15.56-7.357c0-.114-.006-.227-.017-.34z" transform="translate(-204 -322) translate(192 310) translate(12 12) translate(5 6)"/>
                    </g>
                </g>
            </g>
        </g>
    </g>
</svg>
