<svg xmlns="http://www.w3.org/2000/svg" width="25" height="24" viewBox="0 0 25 24">
    <g fill="none" fill-rule="evenodd">
        <g fill="#919191">
            <g>
                <g>
                    <g>
                        <path d="M12.804 21v-1.686c1.124-.118 2.16-.477 3.108-1.079.947-.601 1.722-1.376 2.323-2.323.602-.948.961-1.984 1.079-3.108H21v-1.608h-1.686c-.118-1.124-.477-2.16-1.079-3.108-.601-.947-1.376-1.722-2.323-2.323-.948-.602-1.984-.961-3.108-1.079V3h-1.608v1.686c-1.124.118-2.157.477-3.098 1.079-.941.601-1.712 1.376-2.314 2.323-.601.948-.967 1.984-1.098 3.108H3v1.608h1.686c.131 1.124.497 2.16 1.098 3.108.602.947 1.373 1.722 2.314 2.323.941.602 1.974.961 3.098 1.079V21h1.608zM12 17.706c-1.046 0-2.007-.255-2.882-.765-.863-.51-1.55-1.196-2.06-2.059-.509-.875-.764-1.836-.764-2.882s.255-2.007.765-2.882c.51-.863 1.196-1.55 2.059-2.06.875-.509 1.836-.764 2.882-.764s2.007.255 2.882.765c.863.51 1.55 1.196 2.06 2.059.509.875.764 1.836.764 2.882s-.255 2.007-.765 2.882c-.51.863-1.196 1.55-2.059 2.06-.875.509-1.836.764-2.882.764z" transform="translate(-245 -720) translate(0 712) translate(206.048) translate(39.512 8)"/>
                    </g>
                </g>
            </g>
        </g>
    </g>
</svg>
