<svg xmlns="http://www.w3.org/2000/svg" width="25" height="24" viewBox="0 0 25 24">
    <g fill="none" fill-rule="evenodd">
        <g fill="#919191">
            <g>
                <g>
                    <g>
                        <path d="M12 20.529l1.32-1.147c1.932-1.76 3.281-3.036 4.045-3.83 1.226-1.24 2.12-2.343 2.683-3.31.635-1.11.952-2.213.952-3.31 0-.908-.216-1.74-.649-2.498-.433-.757-1.028-1.352-1.785-1.785C17.81 4.216 16.976 4 16.067 4c-.779 0-1.529.173-2.25.52-.72.345-1.327.807-1.817 1.384-.49-.577-1.096-1.039-1.817-1.385C9.462 4.173 8.719 4 7.954 4c-.923 0-1.76.216-2.51.649-.75.433-1.344 1.028-1.784 1.785C3.22 7.19 3 8.024 3 8.933c0 1.096.325 2.192.974 3.288.548.966 1.435 2.07 2.66 3.31.75.765 2.106 2.034 4.068 3.808L12 20.529z" transform="translate(-347 -720) translate(0 712) translate(307.976) translate(39.512 8)"/>
                    </g>
                </g>
            </g>
        </g>
    </g>
</svg>
